<?xml version="1.0" encoding="UTF-8"?>
<!-- Generated by Pixelmator Pro 3.7.1 -->
<svg width="1000" height="1000" viewBox="0 0 1000 1000" xmlns="http://www.w3.org/2000/svg">
    <path id="KG" fill="#a93232" fill-rule="evenodd" stroke="none" d="M 50.212502 254.950012 L 249.862488 254.950012 L 249.862488 412.525024 L 334.837494 254.950012 L 568.3125 254.950012 L 568.281372 255.009644 C 568.843018 254.969889 569.403402 254.950012 569.962524 254.950012 L 950.287476 254.950012 L 950.287476 422.424988 L 719.287476 422.424988 L 719.287476 578.349976 L 753.112488 578.349976 L 753.112488 435.625 L 950.287476 435.625 L 950.287476 689.724976 C 950.287476 694.674988 948.775024 700.450012 945.75 707.049988 C 942.724976 713.650024 938.737488 719.700012 933.787476 725.200012 C 928.837524 730.700012 923.474976 735.375 917.700012 739.224976 C 911.924988 743.075012 906.287476 745 900.787476 745 L 334.837494 745 L 249.862488 590.724976 L 249.862488 745 L 50.212502 745 L 50.212502 254.950012 Z M 519.637512 650.494629 L 441.262512 498.325012 L 519.637512 348.19104 L 519.637512 650.494629 Z"/>
</svg>
